# xmcd CD database file
#
# Track frame offsets:
#	150
#	18415
#	36890
#
# Disc length: 740 seconds
#
# Revision: 1
# Processed by: cddbd v1.5.1PL2 Copyright (c) Steve Scherf et al.
# Submitted via: CDex 1.51
#
DISCID=1b02e203
DTITLE=Sunna - I'm Not Trading
DYEAR=2001
DGENRE=Rock
TTITLE0=I'm Not Trading
TTITLE1=Grave (Live In Chicago)
TTITLE2=I'm Not Trading (Unkle-In Utero)
EXTD=YEAR: 2001
EXTT0=
EXTT1=
EXTT2=
PLAYORDER=
